<?xml version="1.0" encoding="utf-8"?>
<!-- Svg Vector Icons : http://www.onlinewebfonts.com/icon -->
<!DOCTYPE svg PUBLIC "-//W3C//DTD SVG 1.1//EN" "http://www.w3.org/Graphics/SVG/1.1/DTD/svg11.dtd">
<svg version="1.1" xmlns="http://www.w3.org/2000/svg" xmlns:xlink="http://www.w3.org/1999/xlink" x="0px" y="0px" viewBox="0 0 256 256" enable-background="new 0 0 256 256" xml:space="preserve">
<metadata> Svg Vector Icons : http://www.onlinewebfonts.com/icon </metadata>
<g><g><path fill="#00000060" d="M128,246l-19.6-19.6L82.9,237l-10.6-25.6H44.6v-27.7L19,173.2l10.6-25.6L10,128l19.6-19.6L19,82.8l25.6-10.6V44.5h27.7L82.8,19l25.6,10.6L128,10l19.6,19.6L173.2,19l10.6,25.6h27.7v27.7L237,82.8l-10.6,25.6L246,128l-19.6,19.6l10.6,25.6l-25.6,10.6v27.7h-27.7L173.2,237l-25.6-10.6L128,246z"/></g></g>
</svg>