<?xml version="1.0" encoding="utf-8"?>
<!-- Svg Vector Icons : http://www.onlinewebfonts.com/icon -->
<!DOCTYPE svg PUBLIC "-//W3C//DTD SVG 1.1//EN" "http://www.w3.org/Graphics/SVG/1.1/DTD/svg11.dtd">
<svg version="1.1" xmlns="http://www.w3.org/2000/svg" xmlns:xlink="http://www.w3.org/1999/xlink" x="0px" y="0px" viewBox="0 0 256 256" enable-background="new 0 0 256 256" xml:space="preserve">
<metadata> Svg Vector Icons : http://www.onlinewebfonts.com/icon </metadata>
<g> <path fill="#00000060" d="M229.5,47.9c-18.6-23.6-55.7-29.5-81.2-14.3c-7.6,4.5-14,10.6-20.3,16.7l0,0c-6.3-6.1-12.7-12.2-20.3-16.7 c-25.5-15.2-62.6-9.4-81.2,14.3c-31.1,39.6-14.3,89.7,18.3,122.2c24.2,24,52.1,42.7,81.2,60.2c0.4,0.3,1.2,0.4,2,0.4 c0.8,0,1.5-0.1,2-0.4c29.1-17.5,57-36.2,81.2-60.2C243.8,137.7,260.6,87.5,229.5,47.9z"/></g>
</svg>